<?xml version="1.0" encoding="utf-8"?>
<!-- Generator: Adobe Illustrator 23.0.2, SVG Export Plug-In . SVG Version: 6.00 Build 0)  -->
<svg version="1.1" id="Layer_1" xmlns="http://www.w3.org/2000/svg" xmlns:xlink="http://www.w3.org/1999/xlink" x="0px" y="0px"
	 viewBox="0 0 575 180" style="enable-background:new 0 0 575 180;" xml:space="preserve">
<style type="text/css">
	.st0{fill:none;}
	.st1{fill:none;stroke:#231F20;stroke-width:1.2;}
	.st2{fill:url(#SVGID_1_);}
	.st3{fill:url(#SVGID_2_);}
	.st4{fill:url(#SVGID_3_);}
	.st5{fill:url(#SVGID_4_);}
	.st6{fill:url(#SVGID_5_);}
	.st7{fill:url(#SVGID_6_);}
</style>
<pattern  x="-243.5" y="-212.5" width="72" height="72" patternUnits="userSpaceOnUse" id="_x36__lpi_10_x25_" viewBox="72.25 -72 72 72" style="overflow:visible;">
	<g>
		<rect x="72.25" y="-72" class="st0" width="72" height="72"/>
		<g>
			<line class="st1" x1="144" y1="-6" x2="216.5" y2="-6"/>
			<line class="st1" x1="144" y1="-30" x2="216.5" y2="-30"/>
			<line class="st1" x1="144" y1="-54" x2="216.5" y2="-54"/>
			<line class="st1" x1="144" y1="-18" x2="216.5" y2="-18"/>
			<line class="st1" x1="144" y1="-42" x2="216.5" y2="-42"/>
			<line class="st1" x1="144" y1="-66" x2="216.5" y2="-66"/>
		</g>
		<g>
			<line class="st1" x1="72" y1="-6" x2="144.5" y2="-6"/>
			<line class="st1" x1="72" y1="-30" x2="144.5" y2="-30"/>
			<line class="st1" x1="72" y1="-54" x2="144.5" y2="-54"/>
			<line class="st1" x1="72" y1="-18" x2="144.5" y2="-18"/>
			<line class="st1" x1="72" y1="-42" x2="144.5" y2="-42"/>
			<line class="st1" x1="72" y1="-66" x2="144.5" y2="-66"/>
		</g>
		<g>
			<line class="st1" x1="0" y1="-6" x2="72.5" y2="-6"/>
			<line class="st1" x1="0" y1="-30" x2="72.5" y2="-30"/>
			<line class="st1" x1="0" y1="-54" x2="72.5" y2="-54"/>
			<line class="st1" x1="0" y1="-18" x2="72.5" y2="-18"/>
			<line class="st1" x1="0" y1="-42" x2="72.5" y2="-42"/>
			<line class="st1" x1="0" y1="-66" x2="72.5" y2="-66"/>
		</g>
	</g>
</pattern>
<g>
	<g>
		
			<pattern  id="SVGID_1_" xlink:href="#_x36__lpi_10_x25_" patternTransform="matrix(0.7071 -0.7071 0.7071 0.7071 3235.887 -7229.2441)">
		</pattern>
		<rect x="201" y="3.5" class="st2" width="173" height="173"/>
		<path d="M202,4.5l171,0l0,171l-171,0L202,4.5 M200,2.5l0,175l175,0l0-175L200,2.5L200,2.5z"/>
	</g>
	<g>
		
			<pattern  id="SVGID_2_" xlink:href="#_x36__lpi_10_x25_" patternTransform="matrix(-0.7071 -0.7071 0.7071 -0.7071 -6954.5825 -17803.3184)">
		</pattern>
		<rect x="201" y="3.5" class="st3" width="173" height="173"/>
		<path d="M202,4.5l171,0l0,171l-171,0L202,4.5 M200,2.5l0,175l175,0l0-175L200,2.5L200,2.5z"/>
	</g>
</g>
<g>
	<g>
		
			<pattern  id="SVGID_3_" xlink:href="#_x36__lpi_10_x25_" patternTransform="matrix(0.3536 -0.3536 0.3536 0.3536 -1961.3958 -7350.6011)">
		</pattern>
		<rect x="398.5" y="3.5" class="st4" width="173" height="173"/>
		<path d="M399.5,4.5l171,0l0,171l-171,0L399.5,4.5 M397.5,2.5l0,175l175,0l0-175L397.5,2.5L397.5,2.5z"/>
	</g>
	<g>
		
			<pattern  id="SVGID_4_" xlink:href="#_x36__lpi_10_x25_" patternTransform="matrix(-0.3536 -0.3536 0.3536 -0.3536 -7056.6304 -12637.6387)">
		</pattern>
		<rect x="398.5" y="3.5" class="st5" width="173" height="173"/>
		<path d="M399.5,4.5l171,0l0,171l-171,0L399.5,4.5 M397.5,2.5l0,175l175,0l0-175L397.5,2.5L397.5,2.5z"/>
	</g>
</g>
<g>
	<g>
		
			<pattern  id="SVGID_5_" xlink:href="#_x36__lpi_10_x25_" patternTransform="matrix(1.4142 -1.4142 1.4142 1.4142 13675.2178 -7037.4414)">
		</pattern>
		<rect x="3.5" y="3.5" class="st6" width="173" height="173"/>
		<path d="M4.5,4.5l171,0l0,171l-171,0L4.5,4.5 M2.5,2.5l0,175l175,0l0-175L2.5,2.5L2.5,2.5z"/>
	</g>
	<g>
		
			<pattern  id="SVGID_6_" xlink:href="#_x36__lpi_10_x25_" patternTransform="matrix(-1.4142 -1.4142 1.4142 -1.4142 -6705.7212 -28185.5918)">
		</pattern>
		<rect x="3.5" y="3.5" class="st7" width="173" height="173"/>
		<path d="M4.5,4.5l171,0l0,171l-171,0L4.5,4.5 M2.5,2.5l0,175l175,0l0-175L2.5,2.5L2.5,2.5z"/>
	</g>
</g>
</svg>
