<?xml version="1.0" encoding="utf-8"?>
<!-- Generator: Adobe Illustrator 23.0.2, SVG Export Plug-In . SVG Version: 6.00 Build 0)  -->
<svg version="1.1" id="Layer_1" xmlns="http://www.w3.org/2000/svg" xmlns:xlink="http://www.w3.org/1999/xlink" x="0px" y="0px"
	 viewBox="0 0 865 260" style="enable-background:new 0 0 865 260;" xml:space="preserve">
<style type="text/css">
	.st0{fill:none;stroke:#000000;stroke-width:0.75;stroke-miterlimit:10;}
	.st1{fill:none;stroke:#000000;stroke-miterlimit:10;}
</style>
<g>
	<path class="st0" d="M257.75,1.94c-141.22,0-255.5,114.28-255.5,255.5h255.5V1.94z"/>
	<rect x="4.25" y="221.94" class="st1" width="253" height="36"/>
	<rect x="12.25" y="185.94" class="st1" width="245" height="36"/>
	<rect x="26.25" y="149.94" class="st1" width="231" height="36"/>
	<rect x="46.25" y="113.94" class="st1" width="211" height="36"/>
	<rect x="75.25" y="77.94" class="st1" width="182" height="36"/>
	<rect x="120.25" y="41.94" class="st1" width="137" height="36"/>
	<rect x="213.25" y="5.94" class="st1" width="44" height="36"/>
</g>
<g>
	<path class="st0" d="M560.25,1.94c-141.22,0-255.5,114.28-255.5,255.5h255.5V1.94z"/>
	<rect x="305.75" y="239.94" class="st1" width="254" height="18"/>
	<rect x="307.75" y="221.94" class="st1" width="252" height="18"/>
	<rect x="310.75" y="203.94" class="st1" width="249" height="18"/>
	<rect x="314.75" y="185.94" class="st1" width="245" height="18"/>
	<rect x="321.75" y="167.94" class="st1" width="238" height="18"/>
	<rect x="328.75" y="149.94" class="st1" width="231" height="18"/>
	<rect x="336.75" y="131.94" class="st1" width="223" height="18"/>
	<rect x="349.75" y="113.94" class="st1" width="210" height="18"/>
	<rect x="362.75" y="95.94" class="st1" width="197" height="18"/>
	<rect x="378.75" y="77.94" class="st1" width="181" height="18"/>
	<rect x="398.75" y="59.94" class="st1" width="161" height="18"/>
	<rect x="423.75" y="41.94" class="st1" width="136" height="18"/>
	<rect x="455.75" y="23.94" class="st1" width="104" height="18"/>
	<rect x="514.75" y="5.94" class="st1" width="45" height="18"/>
</g>
<g>
	<path class="st0" d="M862.75,1.94c-141.22,0-255.5,114.28-255.5,255.5h255.5V1.94z"/>
	<rect x="608.25" y="248.94" class="st1" width="254" height="9"/>
	<rect x="608.25" y="239.94" class="st1" width="254" height="9"/>
	<rect x="609.25" y="230.94" class="st1" width="253" height="9"/>
	<rect x="610.25" y="221.94" class="st1" width="252" height="9"/>
	<rect x="611.25" y="212.94" class="st1" width="251" height="9"/>
	<rect x="613.25" y="203.94" class="st1" width="249" height="9"/>
	<rect x="615.25" y="194.94" class="st1" width="247" height="9"/>
	<rect x="617.25" y="185.94" class="st1" width="245" height="9"/>
	<rect x="621.25" y="176.94" class="st1" width="241" height="9"/>
	<rect x="623.25" y="167.94" class="st1" width="239" height="9"/>
	<rect x="627.25" y="158.94" class="st1" width="235" height="9"/>
	<rect x="631.25" y="149.94" class="st1" width="231" height="9"/>
	<rect x="635.25" y="140.94" class="st1" width="227" height="9"/>
	<rect x="640.25" y="131.94" class="st1" width="222" height="9"/>
	<rect x="645.25" y="122.94" class="st1" width="217" height="9"/>
	<rect x="651.25" y="113.94" class="st1" width="211" height="9"/>
	<rect x="658.25" y="104.94" class="st1" width="204" height="9"/>
	<rect x="665.25" y="95.94" class="st1" width="197" height="9"/>
	<rect x="672.25" y="86.94" class="st1" width="190" height="9"/>
	<rect x="681.25" y="77.94" class="st1" width="181" height="9"/>
	<rect x="690.25" y="68.94" class="st1" width="172" height="9"/>
	<rect x="701.25" y="59.94" class="st1" width="161" height="9"/>
	<rect x="712.25" y="50.94" class="st1" width="150" height="9"/>
	<rect x="725.25" y="41.94" class="st1" width="137" height="9"/>
	<rect x="741.25" y="32.94" class="st1" width="121" height="9"/>
	<rect x="759.25" y="23.94" class="st1" width="103" height="9"/>
	<rect x="782.25" y="14.94" class="st1" width="80" height="9"/>
	<rect x="818.25" y="5.94" class="st1" width="44" height="9"/>
</g>
</svg>
