<?xml version="1.0" encoding="utf-8"?>
<!-- Generator: Adobe Illustrator 23.0.2, SVG Export Plug-In . SVG Version: 6.00 Build 0)  -->
<svg version="1.1" id="Layer_1" xmlns="http://www.w3.org/2000/svg" xmlns:xlink="http://www.w3.org/1999/xlink" x="0px" y="0px"
	 viewBox="0 0 765 275" style="enable-background:new 0 0 765 275;" xml:space="preserve">
<style type="text/css">
	.st0{fill:#FFFFFF;}
	.st1{fill:none;stroke:#000000;stroke-width:0.75;stroke-miterlimit:10;}
	.st2{font-family:'MyriadPro-Regular';}
	.st3{font-size:12px;}
	.st4{fill:none;stroke:#000000;stroke-width:4;stroke-miterlimit:10;}
</style>
<g>
	<g>
		<polygon class="st0" points="3.5,270.5 3.5,4.5 255.49,4.5 255.01,38.58 156.5,137.08 156.5,270.5 		"/>
		<path d="M254.47,5.5l-0.46,32.66l-97.93,97.93l-0.59,0.59v0.83v132H4.5V5.5H254.47 M256.5,3.5H2.5v268h155v-134L256,39L256.5,3.5
			L256.5,3.5z"/>
	</g>
	<line class="st1" x1="156" y1="137.5" x2="156" y2="110.5"/>
	<g>
		<path class="st1" d="M156.18,117.5c5.6-1.75,11.56,1.37,13.31,6.97"/>
	</g>
	<text transform="matrix(1 0 0 1 165.0215 105.7154)" class="st2 st3">45ยบ</text>
</g>
<g>
	<g>
		<polygon class="st0" points="344.5,270.5 344.5,4.5 761.49,4.5 761.01,38.3 497.5,136.8 497.5,270.5 		"/>
		<path d="M760.47,5.5l-0.45,32.11L497.8,135.62l-1.3,0.49v1.39v132h-151V5.5H760.47 M762.5,3.5h-419v268h155v-134L762,39L762.5,3.5
			L762.5,3.5z"/>
	</g>
	<line class="st1" x1="497" y1="138.5" x2="497" y2="111.5"/>
	<g>
		<path class="st1" d="M496.55,122.67c6.14-1.92,12.66,1.5,14.58,7.64"/>
	</g>
	<text transform="matrix(1 0 0 1 507.0215 113.7154)" class="st2 st3">60ยบ</text>
	<g>
		<line class="st4" x1="525.5" y1="271.5" x2="525.5" y2="126.5"/>
	</g>
	<g>
		<line class="st4" x1="539.81" y1="271.5" x2="539.5" y2="120.5"/>
	</g>
	<g>
		<line class="st4" x1="554.13" y1="271.5" x2="554.5" y2="116.5"/>
	</g>
	<g>
		<line class="st4" x1="568.44" y1="271.5" x2="568.5" y2="111.5"/>
	</g>
	<g>
		<line class="st4" x1="582.75" y1="271.5" x2="582.5" y2="105.5"/>
	</g>
	<g>
		<line class="st4" x1="597.06" y1="271.5" x2="597.06" y2="99.5"/>
	</g>
	<g>
		<line class="st4" x1="611.38" y1="271.5" x2="611.38" y2="94.5"/>
	</g>
	<g>
		<line class="st4" x1="625.69" y1="271.5" x2="625.69" y2="89.5"/>
	</g>
	<g>
		<line class="st4" x1="640" y1="271.5" x2="640" y2="83.5"/>
	</g>
	<g>
		<line class="st4" x1="654.31" y1="271.5" x2="654.31" y2="78.5"/>
	</g>
	<g>
		<line class="st4" x1="668.63" y1="271.5" x2="668.63" y2="73.5"/>
	</g>
	<g>
		<line class="st4" x1="682.94" y1="271.5" x2="682.94" y2="67.5"/>
	</g>
	<g>
		<line class="st4" x1="697.25" y1="271.5" x2="697.25" y2="61.5"/>
	</g>
	<g>
		<line class="st4" x1="711.56" y1="271.5" x2="711.56" y2="57.5"/>
	</g>
	<g>
		<line class="st4" x1="725.88" y1="271.5" x2="725.88" y2="52.5"/>
	</g>
	<g>
		<line class="st4" x1="740.19" y1="271.5" x2="740.19" y2="46.5"/>
	</g>
	<g>
		<line class="st4" x1="754.5" y1="271.5" x2="754.5" y2="40.5"/>
	</g>
</g>
</svg>
