<?xml version="1.0" encoding="utf-8"?>
<!-- Generator: Adobe Illustrator 23.0.2, SVG Export Plug-In . SVG Version: 6.00 Build 0)  -->
<svg version="1.1" id="Layer_1" xmlns="http://www.w3.org/2000/svg" xmlns:xlink="http://www.w3.org/1999/xlink" x="0px" y="0px"
	 viewBox="0 0 512 640" style="enable-background:new 0 0 512 640;" xml:space="preserve">
<g>
	<g>
		<g>
			<g>
				<g>
					<path d="M261,391c-0.9,0-1.7-0.2-2.5-0.7l-74.1-42.8c-2.4-1.4-3.2-4.4-1.8-6.8c1.4-2.4,4.4-3.2,6.8-1.8l71.6,41.3l71.6-41.3
						c2.4-1.4,5.5-0.6,6.8,1.8c1.4,2.4,0.6,5.4-1.8,6.8l-74.1,42.8C262.7,390.8,261.9,391,261,391z"/>
				</g>
				<g>
					<path d="M261,476.5c-2.8,0-5-2.2-5-5V386c0-2.8,2.2-5,5-5s5,2.2,5,5v85.5C266,474.3,263.8,476.5,261,476.5z"/>
				</g>
				<g>
					<path d="M261,476.5c-0.9,0-1.7-0.2-2.5-0.7l-74.1-42.8c-1.5-0.9-2.5-2.5-2.5-4.3v-85.5c0-1.8,1-3.4,2.5-4.3l74.1-42.8
						c1.5-0.9,3.5-0.9,5,0l74.1,42.8c1.5,0.9,2.5,2.5,2.5,4.3v85.5c0,1.8-1,3.4-2.5,4.3l-74.1,42.8
						C262.7,476.3,261.9,476.5,261,476.5z M191.9,425.9l69.1,39.9l69.1-39.9v-79.8L261,306.2l-69.1,39.9L191.9,425.9L191.9,425.9z"
						/>
				</g>
			</g>
			<g>
				<path d="M371,125.5H151c-2.8,0-5-2.2-5-5v-80c0-2.8,2.2-5,5-5h220c2.8,0,5,2.2,5,5v80C376,123.2,373.8,125.5,371,125.5z
					 M156,115.5h210v-70H156V115.5z"/>
			</g>
			<g>
				<path d="M301,175.5h-80c-1,0-2.1-0.3-2.9-0.9l-70-50c-1.8-1.3-2.5-3.5-1.9-5.6c0.7-2.1,2.6-3.5,4.8-3.5h220
					c2.2,0,4.1,1.4,4.8,3.5s-0.1,4.3-1.9,5.6l-70,50C303.1,175.1,302,175.5,301,175.5z M222.6,165.5h76.8l56-40H166.6L222.6,165.5z"
					/>
			</g>
			<g>
				<path d="M261,235.5c-1.1,0-2.1-0.3-3-1l-40-30c-1.3-0.9-2-2.4-2-4v-30c0-2.8,2.2-5,5-5h80c2.8,0,5,2.2,5,5v30c0,1.6-0.7,3.1-2,4
					l-40,30C263.1,235.1,262.1,235.5,261,235.5z M226,198l35,26.3l35-26.3v-22.5h-70V198z"/>
			</g>
			<g>
				<path d="M401,95.5h-30c-2.8,0-5-2.2-5-5v-50c0-2.8,2.2-5,5-5h30c16.5,0,30,13.5,30,30S417.5,95.5,401,95.5z M376,85.5h25
					c11,0,20-9,20-20s-9-20-20-20h-25V85.5z"/>
			</g>
			<g>
				<path d="M151,95.5h-30c-16.5,0-30-13.5-30-30s13.5-30,30-30h30c2.8,0,5,2.2,5,5v50C156,93.2,153.8,95.5,151,95.5z M121,45.5
					c-11,0-20,9-20,20s9,20,20,20h25v-40H121z"/>
			</g>
			<g>
				<path d="M301,75.5H191c-2.8,0-5-2.2-5-5s2.2-5,5-5h110c2.8,0,5,2.2,5,5S303.8,75.5,301,75.5z"/>
			</g>
			<circle cx="331" cy="70.5" r="10"/>
			<circle cx="451" cy="140.5" r="10"/>
			<circle cx="341" cy="250.5" r="10"/>
			<circle cx="441" cy="360.5" r="10"/>
			<circle cx="121" cy="390.5" r="10"/>
			<circle cx="161" cy="210.5" r="10"/>
			<circle cx="61" cy="130.5" r="10"/>
			<g>
				<path d="M261,305.5c-2.8,0-5-2.2-5-5v-70c0-2.8,2.2-5,5-5s5,2.2,5,5v70C266,303.2,263.8,305.5,261,305.5z"/>
			</g>
			<g>
				<path d="M101,305.5c-13.8,0-25-11.2-25-25s11.2-25,25-25s25,11.2,25,25S114.8,305.5,101,305.5z M101,265.5c-8.3,0-15,6.7-15,15
					s6.7,15,15,15s15-6.7,15-15S109.3,265.5,101,265.5z"/>
			</g>
			<g>
				<path d="M421,255.5c-19.3,0-35-15.7-35-35s15.7-35,35-35s35,15.7,35,35S440.3,255.5,421,255.5z M421,195.5
					c-13.8,0-25,11.2-25,25s11.2,25,25,25s25-11.2,25-25S434.8,195.5,421,195.5z"/>
			</g>
		</g>
	</g>
</g>
</svg>
