<?xml version="1.0" encoding="utf-8"?>
<!-- Generator: Adobe Illustrator 23.0.2, SVG Export Plug-In . SVG Version: 6.00 Build 0)  -->
<svg version="1.1" id="Layer_1" xmlns="http://www.w3.org/2000/svg" xmlns:xlink="http://www.w3.org/1999/xlink" x="0px" y="0px"
	 viewBox="0 0 410 441" style="enable-background:new 0 0 410 441;" xml:space="preserve">
<style type="text/css">
	.st0{fill:#FFFFFF;}
</style>
<path class="st0" d="M293,195.6l82.6-82.6c1.3-1.3,2.2-3.6,2.7-5.4c1.8,0,4-0.9,5.4-2.7c21.4-21.4,21.4-56.7,0-78.2
	c-10.3-10.3-24.1-16.1-38.9-16.1c-14.7,0-28.6,5.8-38.9,16.1c-1.3,1.3-2.2,3.6-2.7,5.4c-2.2,0-4,0.9-5.4,2.2l-83.1,83.1L99.6,2.7
	c-3.6-3.6-9.4-3.6-12.5,0L2.2,87.5c-3.6,3.6-3.6,8.9,0,12.5L117,214.8l-74.6,75c-0.9,0.9-1.8,2.2-2.2,3.1L13,367.6
	c-5.8,15.2-0.4,23.2,3.1,26.8c2.2,2.2,6.7,5.4,14.3,5.4c3.6,0,7.6-0.9,12.5-2.7l74.6-27.7c1.3-0.4,2.2-1.3,3.6-2.2l0,0l0,0
	l74.6-74.6l114.8,114.8c1.8,1.8,4,2.7,6.3,2.7s4.5-0.9,6.3-2.7l84.9-84.9c3.6-3.6,3.6-8.9,0-12.5L293,195.6z M344.3,29
	c9.8,0,19.2,4,26.4,11.2c14.7,14.7,14.7,38.4,0,52.7c-0.4,0.4-0.9,1.3-1.3,1.8l-53.6-53.6c0.9-0.4,1.3-0.9,1.8-1.3
	C324.7,32.6,334.1,29,344.3,29z M109.9,182.7l22.8-22.8c3.6-3.6,3.6-8.9,0-12.5s-8.9-3.6-12.5,0l-23.2,22.3l-30.8-30.8l22.8-22.8
	c3.6-3.6,3.6-8.9,0-12.5c-3.6-3.6-8.9-3.6-12.5,0l-22.8,22.8L21,93.8l72.4-72.4L201.9,130L130,202.8L109.9,182.7z M114.3,348.8
	l-29.5-29.5c-3.6-3.6-8.9-3.6-12.5,0s-3.6,8.9,0,12.5l25.9,25.9l-61.6,22.8c-4.9,1.8-7.6,1.3-8,1.3c-0.4-0.4-0.9-2.7,0.9-8l0,0
	L56.3,301l79.5-79.5l0,0l0,0l84.4-84.4c0,0,0.4,0,0.4-0.4c0,0,0-0.4,0.4-0.4L303.3,54l53.1,53.1l-167,167c0,0-0.4,0-0.4,0.4
	s0,0.4-0.4,0.4L114.3,348.8z M316.7,389.5l-32.6-32.6l22.8-22.8c3.6-3.6,3.6-8.9,0-12.5s-8.9-3.6-12.5,0l-22.8,22.8l-30.8-30.8
	l22.8-22.8c3.6-3.6,3.6-8.9,0-12.5c-3.6-3.6-8.9-3.6-12.5,0L228.2,301l-20.1-20.1l72.4-72.4L389,317.1L316.7,389.5z"/>
</svg>
