<?xml version="1.0" encoding="utf-8"?>
<!-- Generator: Adobe Illustrator 23.0.2, SVG Export Plug-In . SVG Version: 6.00 Build 0)  -->
<svg version="1.1" id="Layer_1" xmlns="http://www.w3.org/2000/svg" xmlns:xlink="http://www.w3.org/1999/xlink" x="0px" y="0px"
	 viewBox="0 0 100 125" style="enable-background:new 0 0 100 125;" xml:space="preserve">
<path d="M69.7,47.8l18.5-18.5c0.3-0.3,0.5-0.8,0.6-1.2c0.4,0,0.9-0.2,1.2-0.6c4.8-4.8,4.8-12.7,0-17.5c-2.3-2.3-5.4-3.6-8.7-3.6
	s-6.4,1.3-8.7,3.6c-0.3,0.3-0.5,0.8-0.6,1.2c-0.5,0-0.9,0.2-1.2,0.5L52.2,30.3L26.4,4.6c-0.8-0.8-2.1-0.8-2.8,0l-19,19
	c-0.8,0.8-0.8,2,0,2.8l25.7,25.7L13.6,68.9c-0.2,0.2-0.4,0.5-0.5,0.7L7,86.3c-1.3,3.4-0.1,5.2,0.7,6c0.5,0.5,1.5,1.2,3.2,1.2
	c0.8,0,1.7-0.2,2.8-0.6l16.7-6.2c0.3-0.1,0.5-0.3,0.8-0.5l0,0c0,0,0,0,0,0l16.7-16.7l25.7,25.7c0.4,0.4,0.9,0.6,1.4,0.6
	c0.5,0,1-0.2,1.4-0.6l19-19c0.8-0.8,0.8-2,0-2.8L69.7,47.8z M81.2,10.5c2.2,0,4.3,0.9,5.9,2.5c3.3,3.3,3.3,8.6,0,11.8
	c-0.1,0.1-0.2,0.3-0.3,0.4L74.8,13.2c0.2-0.1,0.3-0.2,0.4-0.3C76.8,11.3,78.9,10.5,81.2,10.5z M28.7,44.9l5.1-5.1
	c0.8-0.8,0.8-2,0-2.8c-0.8-0.8-2-0.8-2.8,0L25.8,42l-6.9-6.9l5.1-5.1c0.8-0.8,0.8-2,0-2.8c-0.8-0.8-2-0.8-2.8,0l-5.1,5.1L8.8,25
	L25,8.8l24.3,24.3L33.2,49.4L28.7,44.9z M29.7,82.1l-6.6-6.6c-0.8-0.8-2-0.8-2.8,0c-0.8,0.8-0.8,2,0,2.8l5.8,5.8l-13.8,5.1
	c-1.1,0.4-1.7,0.3-1.8,0.3c-0.1-0.1-0.2-0.6,0.2-1.8c0,0,0,0,0,0l6-16.3l17.8-17.8c0,0,0,0,0,0s0,0,0,0l18.9-18.9c0,0,0.1,0,0.1-0.1
	c0,0,0-0.1,0.1-0.1l18.4-18.4L83.9,28L46.5,65.4c0,0-0.1,0-0.1,0.1s0,0.1-0.1,0.1L29.7,82.1z M75,91.2l-7.3-7.3l5.1-5.1
	c0.8-0.8,0.8-2,0-2.8c-0.8-0.8-2-0.8-2.8,0l-5.1,5.1L58,74.2l5.1-5.1c0.8-0.8,0.8-2,0-2.8c-0.8-0.8-2-0.8-2.8,0l-5.1,5.1l-4.5-4.5
	l16.2-16.2L91.2,75L75,91.2z"/>
</svg>
