<?xml version="1.0" encoding="utf-8"?>
<!-- Generator: Adobe Illustrator 23.0.2, SVG Export Plug-In . SVG Version: 6.00 Build 0)  -->
<svg version="1.1" xmlns="http://www.w3.org/2000/svg" xmlns:xlink="http://www.w3.org/1999/xlink" x="0px" y="0px"
	 viewBox="0 0 745 265" style="enable-background:new 0 0 745 265;" xml:space="preserve">
<style type="text/css">
	.st0{fill:#F1F1F2;stroke:#000000;stroke-linecap:round;stroke-linejoin:bevel;stroke-miterlimit:10;}
	.st1{fill:#929497;stroke:#000000;stroke-linecap:round;stroke-linejoin:bevel;stroke-miterlimit:10;}
	.st2{fill:none;stroke:#ED2121;stroke-miterlimit:10;}
	.st3{fill:none;stroke:#ED2121;stroke-linecap:round;stroke-linejoin:bevel;stroke-miterlimit:10;}
	.st4{fill:#929497;stroke:#000000;stroke-linejoin:bevel;stroke-miterlimit:10;}
	.st5{fill:#F1F1F2;}
	.st6{fill:none;stroke:#000000;stroke-linecap:round;stroke-linejoin:bevel;stroke-miterlimit:10;}
	.st7{fill:none;stroke:#000000;stroke-linecap:round;stroke-linejoin:bevel;}
</style>
<g id="Layer_1">
</g>
<g id="Layer_2">
	<polygon class="st0" points="370.5,223 370.5,44 548.5,12 658.5,52 658.5,231 481.5,262 	"/>
	<polygon class="st1" points="540.5,181 428.5,201 492.5,249 648.5,222 	"/>
	<polygon class="st0" points="481.5,85 370.5,44 370.5,223 481.5,262 	"/>
	<polygon class="st0" points="481.5,85 658.5,52 548.5,12 370.5,44 	"/>
	<path class="st2" d="M548.5,12"/>
	<polygon class="st3" points="6.5,214 6.5,35 184.5,3 294.5,43 294.5,222 117.5,253 	"/>
	<path class="st2" d="M184.5,3"/>
	<polygon class="st1" points="294.5,222 184.5,181 184.5,3 294.5,44 	"/>
	<polygon class="st4" points="184.5,181 6.5,214 117.5,253 294.5,222 	"/>
	<polygon class="st1" points="648.5,222 540.5,181 540.5,85.38 648.5,66 	"/>
	<polygon class="st0" points="117.5,76 6.5,35 6.5,214 117.5,253 	"/>
	<polygon class="st0" points="117.5,76 294.5,43 184.5,3 6.5,35 	"/>
	<g>
		<g>
			<path class="st5" d="M481.5,85v177l177-31V52L481.5,85z M648.5,222l-156,27V94l156-28V222z"/>
		</g>
		<g>
			<path class="st6" d="M481.5,85v177l177-31V52L481.5,85z M648.5,222l-156,27V94l156-28V222z"/>
		</g>
	</g>
	<line class="st6" x1="665.5" y1="51" x2="738.5" y2="38"/>
	<line class="st6" x1="665.5" y1="62" x2="738.5" y2="49"/>
	<g>
		<g>
			<line class="st7" x1="701.5" y1="18" x2="701.5" y2="31.03"/>
			<g>
				<polygon points="698.89,29.24 701.5,39 704.11,29.24 				"/>
			</g>
		</g>
	</g>
	<g>
		<g>
			<line class="st7" x1="701.5" y1="66.97" x2="701.5" y2="80"/>
			<g>
				<polygon points="698.89,68.76 701.5,59 704.11,68.76 				"/>
			</g>
		</g>
	</g>
</g>
</svg>
