<?xml version="1.0" encoding="utf-8"?>
<!-- Generator: Adobe Illustrator 23.0.2, SVG Export Plug-In . SVG Version: 6.00 Build 0)  -->
<svg version="1.1" id="Layer_1" xmlns="http://www.w3.org/2000/svg" xmlns:xlink="http://www.w3.org/1999/xlink" x="0px" y="0px"
	 viewBox="0 0 80 100" style="enable-background:new 0 0 80 100;" xml:space="preserve">
<g>
	<path d="M50,0H0v100h80V30L50,0z M52.5,9.6l17.9,17.9H52.5V9.6z M75,95H5V5h42.5v27.5H75V95z M15,50v25l25,15l25-15V50L40,35L15,50
		z M37.5,82.7L20,72.2V55.9l17.5,10.5V82.7z M60,72.2L42.5,82.7V66.4L60,55.9V72.2z M40,62.1L22.3,51.5L40,40.8l17.7,10.6L40,62.1z"
		/>
</g>
</svg>
